<svg width="48" height="48" viewBox="0 0 48 48" fill="none" xmlns="http://www.w3.org/2000/svg">
<path d="M3 23.7986C2.99925 12.3259 12.2987 3.02587 23.7711 3.02643C35.2434 3.0268 44.5447 12.3276 44.5455 23.8001C44.5464 35.2731 35.2466 44.5729 23.7742 44.5725C12.3017 44.5719 3.00094 35.2714 3 23.7986Z" stroke="white" stroke-width="0.839269" stroke-miterlimit="3.8637"/>
<path d="M7.82364 34.4983L10.1147 34.4985L10.1143 28.4619H16.0341V26.5196L10.1143 26.5194L10.1136 22.9584L16.8581 22.959L16.8579 20.9023L7.82251 20.9019L7.82364 34.4983Z" fill="white"/>
<path d="M28.3451 25.2249C28.0695 22.2926 25.7421 20.5976 22.7912 20.5787C18.8694 20.5781 16.5232 23.8155 16.5236 27.7001C16.5238 31.5849 18.8698 34.8221 22.7923 34.8225C25.9633 34.8225 28.1807 32.5749 28.3639 29.3192H26.1276C25.9444 31.2994 24.8265 32.88 22.7919 32.8798C19.9884 32.8798 18.8147 30.3088 18.8147 27.6999C18.8143 25.091 19.9877 22.5204 22.7912 22.5204C24.6975 22.5204 25.6686 23.6632 26.0541 25.2247L28.3451 25.2249Z" fill="white"/>
<path d="M28.8894 34.4993L31.0701 34.4995L31.0693 24.5016H31.1248L37.0819 34.4997H39.501L39.5001 20.9025H37.3193L37.3194 30.9193H37.2834L31.3072 20.9025L28.8879 20.9023L28.8894 34.4993Z" fill="white"/>
<path d="M19.0633 9.65516L22.2158 9.65553L22.2167 19.0632H24.5076L24.5064 5.73303H22.8021C22.4906 7.33222 20.823 7.96091 19.0637 7.94178V9.65516H19.0633Z" fill="white"/>
<path d="M25.3256 19.0631H27.873V16.4923L25.3253 16.4921L25.3256 19.0631Z" fill="white"/>
</svg>
