<svg width="96" height="96" viewBox="0 0 96 96" fill="none" xmlns="http://www.w3.org/2000/svg">
<path d="M1.125 47.811C1.12313 22.0252 22.0234 1.12425 47.8087 1.125C73.5938 1.12575 94.4974 22.0298 94.5 47.8148C94.503 73.599 73.6016 94.5007 47.817 94.5C22.0305 94.4996 1.12725 73.5956 1.125 47.811Z" fill="#AA1124"/>
<path d="M6 47.5972C5.9985 24.6517 24.5974 6.05173 47.5421 6.05286C70.4869 6.05361 89.0895 24.6551 89.091 47.6002C89.0929 70.5461 70.4932 89.1457 47.5485 89.145C24.6034 89.1439 6.00188 70.5427 6 47.5972Z" stroke="white" stroke-width="1.67854" stroke-miterlimit="3.8637"/>
<path d="M15.6473 68.9966L20.2294 68.997L20.2286 56.9239H32.0681V53.0393L20.2286 53.0389L20.2271 45.9169L33.7163 45.918L33.7159 41.8046L15.645 41.8039L15.6473 68.9966Z" fill="white"/>
<path d="M56.6902 50.4498C56.139 44.5852 51.4841 41.1952 45.5824 41.1573C37.7389 41.1562 33.0465 47.631 33.0472 55.4002C33.0476 63.1698 37.7396 69.6442 45.5846 69.645C51.9266 69.645 56.3614 65.1498 56.7277 58.6383H52.2551C51.8887 62.5987 49.653 65.76 45.5839 65.7596C39.9769 65.7596 37.6294 60.6176 37.6294 55.3998C37.6286 50.1821 39.9754 45.0408 45.5824 45.0408C49.395 45.0408 51.3371 47.3265 52.1081 50.4495L56.6902 50.4498Z" fill="white"/>
<path d="M57.7789 68.9985L62.1401 68.9989L62.1386 49.0031H62.2496L74.1637 68.9992H79.002L79.0001 41.805H74.6385L74.6389 61.8386H74.5669L62.6145 41.805L57.7759 41.8046L57.7789 68.9985Z" fill="white"/>
<path d="M38.1266 19.3103L44.4315 19.311L44.4334 38.1263H49.0152L49.0129 11.466H45.6041C44.9813 14.6644 41.646 15.9218 38.1274 15.8835V19.3103H38.1266Z" fill="white"/>
<path d="M50.6513 38.1263H55.746V32.9846L50.6505 32.9843L50.6513 38.1263Z" fill="white"/>
</svg>
